# xmcd
#
# Track frame offsets: 
#        150
#        15632
#        33637
#        52434
#        71942
#        88707
#        111823
#        127538
#        142046
#        160810
#        173931
#        193005
#        211206
#
# Disc length: 3114 seconds
#
# Revision: 2
# Processed by: cddbd v1.5.2PL0 Copyright (c) Steve Scherf et al.
# Submitted via: ExactAudioCopy v0.99pb5
#
DISCID=be0c280d
DTITLE=Μάνος Ελευθερίου - ΠΑΝΤΑ ΚΑΤΙ ΜΕΝΕΙ
DYEAR=2008
DGENRE=Acid Jazz
TTITLE0=Γιώργος Νταλάρας - Οι σταθμάρχες
TTITLE1=Σταύρος Σιόλας - Η πανοπλία που φοράς
TTITLE2=Μπάμπης Στόκας - Κάπου υπάρχει ένα νησί
TTITLE3=Μίλτος Πασχαλίδης - Παράσταση θα δ΄σω
TTITLE4=Ελένη Τσαλιγοπούλου - Το κρεβάτι τρίζει
TTITLE5=Αλκίνοος Ιωαννίδης - Σε άδειο θέατρο
TTITLE6=Γιώργος Νταλάρας - Ένας ζητιάνος στα χρυσά
TTITLE7=Χρήστος Θηβαίος - Τα τραγούδια που' χω γράψει
TTITLE8=Γιώργος Νταλάρας - Στου σπιτιού τη σάλα
TTITLE9=Σωκράτης Μάλαμας - Οι γέροι
TTITLE10=Κώστας Μακεδόνας - Μέσα στον ύπνο μου γυρνάς
TTITLE11=Μελίνα Κανά - Σάββατο βράδυ
TTITLE12=Γιάννης Κούτρας - Πάντα κάτι μένει
EXTD=
EXTT0=
EXTT1=
EXTT2=
EXTT3=
EXTT4=
EXTT5=
EXTT6=
EXTT7=
EXTT8=
EXTT9=
EXTT10=
EXTT11=
EXTT12=
PLAYORDER=
